HIERARCHY
ROOT Hips
{
    OFFSET 0.000000 0.000000 0.000000
    CHANNELS 6 Xposition Yposition Zposition Zrotation Xrotation Yrotation
    JOINT Spine
    {
        OFFSET -0.000000 14.517291 0.000000
        CHANNELS 3 Zrotation Xrotation Yrotation
        JOINT Spine1
        {
            OFFSET -0.000000 37.558300 0.000000
            CHANNELS 3 Zrotation Xrotation Yrotation
            JOINT Neck
            {
                OFFSET -0.000000 37.404057 3.400369
                CHANNELS 3 Zrotation Xrotation Yrotation
                JOINT Head
                {
                    OFFSET -0.000000 24.785618 -3.540803
                    CHANNELS 3 Zrotation Xrotation Yrotation
                    End Site
                    {
                        OFFSET -0.000000 35.408028 0.000000
                    }
                }
            }
            JOINT LeftShoulder
            {
                OFFSET 6.992933 33.973492 -0.192664
                CHANNELS 3 Zrotation Xrotation Yrotation
                JOINT LeftArm
                {
                    OFFSET 21.527611 0.000000 0.000000
                    CHANNELS 3 Zrotation Xrotation Yrotation
                    JOINT LeftForeArm
                    {
                        OFFSET 56.353916 0.000000 0.000000
                        CHANNELS 3 Zrotation Xrotation Yrotation
                        JOINT LeftHand
                        {
                            OFFSET 47.774071 0.000000 0.000000
                            CHANNELS 3 Zrotation Xrotation Yrotation
                            End Site
                            {
                                OFFSET 26.556021 0.000000 0.000000
                            }
                        }
                    }
                }
            }
            JOINT RightShoulder
            {
                OFFSET -7.065357 33.973492 -0.192664
                CHANNELS 3 Zrotation Xrotation Yrotation
                JOINT RightArm
                {
                    OFFSET -21.527611 0.000000 0.000000
                    CHANNELS 3 Zrotation Xrotation Yrotation
                    JOINT RightForeArm
                    {
                        OFFSET -56.353916 0.000000 0.000000
                        CHANNELS 3 Zrotation Xrotation Yrotation
                        JOINT RightHand
                        {
                            OFFSET -47.774071 0.000000 0.000000
                            CHANNELS 3 Zrotation Xrotation Yrotation
                            End Site
                            {
                                OFFSET -26.556021 0.000000 0.000000
                            }
                        }
                    }
                }
            }
        }
    }
    JOINT LeftUpLeg
    {
        OFFSET 17.704014 0.000000 0.000000
        CHANNELS 3 Zrotation Xrotation Yrotation
        JOINT LeftLeg
        {
            OFFSET -0.000000 -81.181816 0.000000
            CHANNELS 3 Zrotation Xrotation Yrotation
            JOINT LeftFoot
            {
                OFFSET -0.000000 -62.821102 0.000000
                CHANNELS 3 Zrotation Xrotation Yrotation
                JOINT LeftToeBase
                {
                    OFFSET -0.000000 -11.507608 26.556021
                    CHANNELS 3 Zrotation Xrotation Yrotation
                    End Site
                    {
                        OFFSET -0.000000 0.000000 7.081605
                    }
                }
            }
        }
    }
    JOINT RightUpLeg
    {
        OFFSET -17.704014 0.000000 0.000000
        CHANNELS 3 Zrotation Xrotation Yrotation
        JOINT RightLeg
        {
            OFFSET -0.000000 -81.181816 0.000000
            CHANNELS 3 Zrotation Xrotation Yrotation
            JOINT RightFoot
            {
                OFFSET -0.000000 -62.821102 0.000000
                CHANNELS 3 Zrotation Xrotation Yrotation
                JOINT RightToeBase
                {
                    OFFSET -0.000000 -11.507608 26.556021
                    CHANNELS 3 Zrotation Xrotation Yrotation
                    End Site
                    {
                        OFFSET -0.000000 0.000000 7.081605
                    }
                }
            }
        }
    }
}
MOTION
Frames:    11
Frame Time:    0.008333
30.043093    155.755753    -34.553616    0.540998    -2.627327    -53.560368    2.038733    0.693550    6.839684    -0.592017    3.698470    2.301436    13.322035    -4.317818    14.906232    -6.194000    10.376949    12.711231    8.751143    -3.786862    -14.330037    -8.769113    -18.656412    -45.676502    8.898274    -35.427952    -13.487206    -24.154940    -26.559935    -41.494625    -6.827305    8.935940    10.607257    30.219931    10.091125    69.679176    5.296535    -10.289074    101.658722    7.957041    -15.028567    23.434326    17.424644    -16.527443    5.493155    -13.298732    20.492283    -1.440028    -7.377146    -3.122937    41.382252    0.000000    0.000000    0.000000    -19.768726    -0.874886    5.702690    5.735212    26.426220    2.601643    7.853513    -20.628479    -11.121002    0.000000    0.000000    0.000000    
30.224831    155.782242    -34.365688    0.611246    -2.612058    -54.327740    2.038623    0.713902    6.792519    -0.617835    3.621217    2.286236    13.479666    -4.201489    15.111444    -6.389291    10.391491    12.900663    8.717424    -3.636842    -14.258647    -8.504500    -18.741035    -45.258698    8.903155    -35.444790    -13.531762    -24.185736    -26.566776    -41.481014    -6.850570    8.907232    10.652400    30.312256    9.954482    70.080849    5.417936    -10.020233    101.719315    7.600487    -14.988382    23.431849    17.499441    -16.375364    5.941142    -13.378618    20.626524    -1.188884    -7.271694    -3.324792    41.407841    0.000000    0.000000    0.000000    -19.910622    -1.286260    6.095621    5.666675    26.384611    2.727005    7.969967    -20.424709    -10.968327    0.000000    0.000000    0.000000    
30.397177    155.801773    -34.192341    0.660488    -2.595539    -55.104752    1.995672    0.734043    6.788866    -0.536060    3.562044    2.282168    13.575298    -4.093589    15.267047    -6.592602    10.404463    13.048853    8.694448    -3.713562    -14.261328    -8.506966    -18.807537    -44.830795    8.785519    -35.317219    -13.612885    -24.228195    -26.405012    -41.541988    -6.907550    8.740136    10.589783    30.376596    10.021576    70.433647    5.512446    -9.838136    101.835892    7.530982    -14.957463    23.323051    17.614628    -16.202454    6.425316    -13.489883    20.768177    -0.945538    -7.145743    -3.516964    41.406834    0.000000    0.000000    0.000000    -20.016340    -1.693687    6.495146    5.581383    26.350273    2.805421    8.102312    -20.232031    -10.784947    0.000000    0.000000    0.000000    
30.582994    155.823654    -34.004272    0.724955    -2.598365    -55.870338    1.891319    0.816718    6.809307    -0.426836    3.403619    2.285185    13.756593    -4.002171    15.421248    -6.865257    10.475783    13.178014    8.752473    -3.747204    -14.269042    -8.583134    -18.791290    -44.461666    8.830265    -35.263489    -13.644264    -24.333879    -26.291985    -41.582973    -6.892346    8.703200    10.531515    30.339546    9.988820    70.752480    5.669083    -9.693544    102.032616    7.505737    -15.034681    23.285107    17.691360    -16.024446    6.914984    -13.600712    20.879532    -0.676240    -7.020122    -3.687099    41.389835    0.000000    0.000000    0.000000    -20.163229    -2.112761    6.963349    5.562738    26.331718    2.889752    8.190371    -20.036333    -10.688294    0.000000    0.000000    0.000000    
30.766207    155.839539    -33.817436    0.785151    -2.576318    -56.606701    1.804536    0.896641    6.859518    -0.318452    3.202311    2.298351    14.034809    -3.889598    15.569505    -7.222799    10.590907    13.285007    8.831590    -3.738905    -14.390057    -8.619125    -18.730057    -44.017342    8.877503    -35.265224    -13.741028    -24.284393    -26.312256    -41.526634    -6.787302    8.826271    10.351024    30.233589    9.825838    71.158653    5.776461    -9.496612    102.247673    7.549976    -14.988084    23.291979    17.796293    -15.869517    7.453621    -13.704268    21.018297    -0.443471    -6.872749    -3.860605    41.319954    0.000000    0.000000    0.000000    -20.273167    -2.530298    7.412062    5.530773    26.307640    2.937786    8.304128    -19.833220    -10.555205    0.000000    0.000000    0.000000    
30.941948    155.856461    -33.633812    0.854591    -2.568571    -57.310841    1.672795    0.977204    6.896327    -0.155683    3.002018    2.305806    14.299713    -3.801651    15.721848    -7.611028    10.727992    13.396983    8.868538    -3.671183    -14.546555    -8.618200    -18.730742    -43.546906    8.944094    -35.265003    -13.822331    -24.350496    -26.269381    -41.553249    -6.760367    8.743284    10.135225    30.254986    9.869599    71.470985    5.914052    -9.292986    102.485283    7.519350    -14.998593    23.181911    17.877884    -15.717381    8.012027    -13.793421    21.149088    -0.235177    -6.757188    -4.029042    41.246365    0.000000    0.000000    0.000000    -20.391014    -2.930107    7.831912    5.505746    26.277719    2.993901    8.486605    -19.638304    -10.464079    0.000000    0.000000    0.000000    
31.114790    155.871231    -33.461391    0.929500    -2.554827    -58.001488    1.514907    1.065936    6.933584    0.020332    2.753855    2.313563    14.242289    -3.913380    15.801922    -7.409056    11.039774    13.507153    8.949287    -3.614972    -14.773109    -8.637496    -18.653763    -42.991360    9.052720    -35.279373    -13.937789    -24.423269    -26.234343    -41.573524    -6.670283    8.770978    9.894725    30.238224    9.788124    71.841827    6.071395    -9.034883    102.637291    7.475696    -14.963188    23.212809    17.969311    -15.564355    8.593916    -13.894560    21.247921    0.007024    -6.625109    -4.155247    41.132362    0.000000    0.000000    0.000000    -20.500454    -3.331640    8.234778    5.466498    26.244963    3.108407    8.584121    -19.459225    -10.406537    0.000000    0.000000    0.000000    
31.304720    155.885406    -33.287434    1.023232    -2.548104    -58.641201    2.102944    -0.754561    6.225891    -0.017863    6.428591    2.069310    12.529082    -5.082813    16.397017    -6.498109    10.247094    14.310822    8.883257    -5.299493    -13.405436    -7.423117    -17.252531    -42.214973    9.958103    -36.480568    -13.380312    -25.104393    -27.171322    -41.957390    -8.933698    7.232381    10.132486    30.808670    9.656462    73.793877    5.752456    -10.471609    102.261330    8.049622    -15.816634    23.278400    18.029736    -15.445183    9.157732    -13.986668    21.341902    0.261661    -6.517481    -4.284688    40.988316    0.000000    0.000000    0.000000    -20.632050    -3.733724    8.596785    5.445128    26.215437    3.179142    8.674116    -19.269594    -10.303757    0.000000    0.000000    0.000000    
31.490812    155.894440    -33.103138    1.117006    -2.554837    -59.265694    2.068913    -0.705727    6.089076    0.019474    6.296644    2.021970    12.711928    -4.916083    16.627579    -6.891309    10.243272    14.514772    8.876536    -5.194962    -13.491817    -7.208291    -17.058311    -41.500481    10.095206    -36.680058    -13.566617    -25.178411    -27.327856    -41.994106    -8.983376    7.201111    10.076963    30.885492    9.566186    74.254875    5.892575    -10.178100    102.394135    7.807610    -15.769176    23.184572    18.069136    -15.325122    9.788781    -14.041824    21.461903    0.444819    -6.413311    -4.418062    40.837536    0.000000    0.000000    0.000000    -20.817543    -4.100595    9.016955    5.547019    26.130501    3.273060    8.710744    -19.110033    -10.332455    0.000000    0.000000    0.000000    
31.671608    155.914001    -32.917995    1.225403    -2.566565    -59.854107    1.967316    -0.670678    5.941894    0.168025    6.113266    1.965424    12.882159    -4.653633    16.842871    -7.331048    10.196786    14.711700    8.802498    -5.095035    -13.655056    -7.070089    -16.879164    -40.755878    10.229828    -36.760567    -13.737203    -25.308270    -27.317347    -42.101654    -8.987014    7.162302    10.052655    30.985586    9.463602    74.632645    6.082580    -9.791155    102.490234    7.699453    -15.664476    23.030878    18.090223    -15.213446    10.387712    -14.100900    21.551411    0.621160    -6.304212    -4.514109    40.688618    0.000000    0.000000    0.000000    -20.971626    -4.474313    9.324347    5.531017    26.082466    3.328375    8.825974    -18.917566    -10.226348    0.000000    0.000000    0.000000    
31.870329    155.921326    -32.747437    1.353114    -2.579540    -60.384148    1.920387    -0.627709    5.713781    0.201046    5.964506    1.888229    13.120720    -4.491699    17.112349    -7.774845    10.213914    14.945302    8.785695    -4.885268    -13.627477    -6.708329    -16.425360    -40.069805    10.634294    -37.117668    -13.825248    -25.434649    -27.600681    -42.172581    -9.000196    7.099769    10.026634    31.106611    9.333489    75.100380    6.502392    -9.346766    102.666702    7.534901    -15.803652    22.899799    18.099665    -15.155792    10.926416    -14.178831    21.649961    0.764894    -6.218346    -4.630394    40.588276    0.000000    0.000000    0.000000    -21.144497    -4.843268    9.590745    5.540060    26.029537    3.360187    8.912624    -18.753895    -10.122636    0.000000    0.000000    0.000000    
